<?xml version="1.0" encoding="UTF-8" standalone="no"?>
<svg width="24px" height="24px" viewBox="0 0 24 24" version="1.1" xmlns="http://www.w3.org/2000/svg" xmlns:xlink="http://www.w3.org/1999/xlink">
    <!-- Generator: Sketch 3.8.3 (29802) - http://www.bohemiancoding.com/sketch -->
    <title>Artboard 1</title>
    <desc>Created with Sketch.</desc>
    <defs></defs>
    <g id="Page-1" stroke="none" stroke-width="1" fill="none" fill-rule="evenodd">
        <g id="Artboard-1">
            <g id="ic_extension_black_24px">
                <g id="Group">
                    <polygon id="Shape" points="0 0 24 0 24 24 0 24"></polygon>
                    <path d="M19.0952381,11.6190476 L17.952381,11.6190476 L17.952381,8.57142857 C17.952381,7.73333333 17.2666667,7.04761905 16.4285714,7.04761905 L13.3809524,7.04761905 L13.3809524,5.9047619 C13.3809524,4.85333333 12.527619,4 11.4761905,4 C10.4247619,4 9.57142857,4.85333333 9.57142857,5.9047619 L9.57142857,7.04761905 L6.52380952,7.04761905 C5.68571429,7.04761905 5.00761905,7.73333333 5.00761905,8.57142857 L5.00761905,11.4666667 L6.14285714,11.4666667 C7.27809524,11.4666667 8.2,12.3885714 8.2,13.5238095 C8.2,14.6590476 7.27809524,15.5809524 6.14285714,15.5809524 L5,15.5809524 L5,18.4761905 C5,19.3142857 5.68571429,20 6.52380952,20 L9.41904762,20 L9.41904762,18.8571429 C9.41904762,17.7219048 10.3409524,16.8 11.4761905,16.8 C12.6114286,16.8 13.5333333,17.7219048 13.5333333,18.8571429 L13.5333333,20 L16.4285714,20 C17.2666667,20 17.952381,19.3142857 17.952381,18.4761905 L17.952381,15.4285714 L19.0952381,15.4285714 C20.1466667,15.4285714 21,14.5752381 21,13.5238095 C21,12.472381 20.1466667,11.6190476 19.0952381,11.6190476 L19.0952381,11.6190476 Z" id="Shape" fill="#000000"></path>
                </g>
            </g>
        </g>
    </g>
</svg>